<?xml version="1.0" standalone="no"?>
<!DOCTYPE svg PUBLIC "-//W3C//DTD SVG 1.1//EN" "http://www.w3.org/Graphics/SVG/1.1/DTD/svg11.dtd" >
<!--
2013-9-30: Created.
-->
<svg>
<metadata>
Created by iconfont
</metadata>
<defs>

<font id="iconfont" horiz-adv-x="1024" >
  <font-face
    font-family="iconfont"
    font-weight="500"
    font-stretch="normal"
    units-per-em="1024"
    ascent="896"
    descent="-128"
  />
    <missing-glyph />
    
    <glyph glyph-name="qianjin" unicode="&#58964;" d="M532.48 518.826667V668.444444a11.377778 11.377778 0 0 0 19.342222 7.964445l312.888889-284.444445a11.377778 11.377778 0 0 0 0-17.066666l-312.888889-284.444445a11.377778 11.377778 0 0 0-19.342222 7.964445v139.946666a498.346667 498.346667 0 0 1-373.76-107.52 11.377778 11.377778 0 0 0-18.204444 11.377778c21.617778 95.573333 108.657778 376.604444 391.964444 376.604445z"  horiz-adv-x="1024" />

    
    <glyph glyph-name="houtui" unicode="&#58965;" d="M476.16 518.826667V668.444444A11.377778 11.377778 0 0 1 455.111111 679.253333l-312.888889-284.444444a11.377778 11.377778 0 0 1 0-17.066667l312.888889-284.444444a11.377778 11.377778 0 0 1 19.342222 7.964444v137.102222a498.346667 498.346667 0 0 0 373.76-107.52 11.377778 11.377778 0 0 1 18.204445 11.377778c-19.911111 95.573333-106.951111 376.604444-390.257778 376.604445z"  horiz-adv-x="1024" />

    
    <glyph glyph-name="xiangxiajiantou" unicode="&#58966;" d="M512 184.32h-16.497778l-15.928889 13.084444L159.288889 518.257778l56.32 56.32L512 278.186667l296.391111 296.391111 56.32-56.32-332.231111-332.231111-20.48-1.706667z"  horiz-adv-x="1024" />

    
    <glyph glyph-name="dakaiwenjianjia" unicode="&#58967;" d="M824.888889 598.471111H551.253333l-113.777777 98.417778H199.111111a56.888889 56.888889 0 0 1-56.888889-56.888889v-512a56.888889 56.888889 0 0 1 56.888889-56.888889h625.777778a56.888889 56.888889 0 0 1 56.888889 56.888889V541.582222a56.888889 56.888889 0 0 1-56.888889 56.888889zM416.426667 640L512 554.666667l15.928889-13.653334h296.96v-192.284444h-625.777778V640z"  horiz-adv-x="1024" />

    
    <glyph glyph-name="guanbiwenjianjia" unicode="&#58968;" d="M825.457778 598.471111H551.822222l-113.777778 98.417778H199.68a56.888889 56.888889 0 0 1-56.888889-56.888889v-512a56.888889 56.888889 0 0 1 56.888889-56.888889h625.777778a56.888889 56.888889 0 0 1 56.888889 56.888889V541.582222a56.888889 56.888889 0 0 1-56.888889 56.888889z m0-129.137778h-625.777778v56.888889h625.777778z"  horiz-adv-x="1024" />

    
    <glyph glyph-name="lajixiang_huaban1" unicode="&#58971;" d="M853.333333 641.706667h-170.666666v50.631111a62.577778 62.577778 0 0 1-62.577778 62.577778H402.204444A62.577778 62.577778 0 0 1 341.333333 692.337778v-50.631111H170.666667v-56.888889h56.888889v-512a62.577778 62.577778 0 0 1 62.577777-62.577778h443.733334a62.577778 62.577778 0 0 1 62.577777 62.577778v512h56.888889z m-455.111111 50.631111a5.688889 5.688889 0 0 0 5.688889 5.688889h219.591111a5.688889 5.688889 0 0 0 5.688889-5.688889v-50.631111H398.222222z m341.333334-616.675556a5.12 5.12 0 0 0-5.688889-5.688889H290.133333a5.12 5.12 0 0 0-5.688889 5.688889V584.817778h455.111112zM398.222222 464.213333h56.888889v-274.773333H398.222222zM568.888889 464.213333h56.888889v-274.773333h-56.888889z"  horiz-adv-x="1024" />

    
    <glyph glyph-name="quanping_huaban1" unicode="&#58974;" d="M625.777778 640h142.222222V497.777778h113.777778V753.777778H625.777778v-113.777778zM256 497.777778V640H398.222222v113.777778H142.222222V497.777778h113.777778zM768 270.222222v-142.222222H625.777778v-113.777778h256V270.222222h-113.777778zM398.222222 128H256V270.222222h-113.777778v-256H398.222222v113.777778z"  horiz-adv-x="1024" />

    
    <glyph glyph-name="chuizhifanzhuan_huaban1" unicode="&#58976;" d="M170.666667 755.484444v-341.333333h682.666666v39.253333L211.057778 755.484444H170.666667zM682.666667 296.96l-455.111111-213.902222v213.902222h455.111111m170.666666 56.888889H170.666667v-341.333333h40.391111L853.333333 314.595556v39.253333z"  horiz-adv-x="1024" />

    
    <glyph glyph-name="suodingtouming_huaban1" unicode="&#58977;" d="M768 696.888889h-512a56.888889 56.888889 0 0 1-56.888889-56.888889v-512a56.888889 56.888889 0 0 1 56.888889-56.888889h512a56.888889 56.888889 0 0 1 56.888889 56.888889v512a56.888889 56.888889 0 0 1-56.888889 56.888889z m0-227.555556h-170.666667v-170.666666h170.666667v-170.666667h-170.666667v170.666667h-170.666666v-170.666667h-170.666667v170.666667h170.666667v170.666666h-170.666667v170.666667h170.666667v-170.666667h170.666666v170.666667h170.666667z"  horiz-adv-x="1024" />

    
    <glyph glyph-name="suoding_huaban1" unicode="&#58978;" d="M540.444444 342.471111h-56.888888v-171.804444h56.888888V342.471111zM824.888889 522.808889h-56.888889V677.546667a79.644444 79.644444 0 0 1-79.644444 79.644444H335.644444a79.644444 79.644444 0 0 1-79.644444-79.644444v-154.737778h-56.888889a56.888889 56.888889 0 0 1-56.888889-56.888889v-398.222222a56.888889 56.888889 0 0 1 56.888889-56.888889h625.777778a56.888889 56.888889 0 0 1 56.888889 56.888889v398.222222a56.888889 56.888889 0 0 1-56.888889 56.888889z m-512 154.737778a22.755556 22.755556 0 0 0 22.755555 22.755555h352.711112a22.755556 22.755556 0 0 0 22.755555-22.755555v-154.737778h-398.222222z m512-609.848889h-625.777778v398.222222h625.777778z"  horiz-adv-x="1024" />

    
    <glyph glyph-name="huifu_huaban1" unicode="&#58984;" d="M853.333333 667.875556H284.444444v-112.64H170.666667v-455.111112h568.888889v112.64h113.777777v455.111112zM227.555556 157.013333v284.444445h455.111111v-284.444445H227.555556z m568.888888 112.64h-56.888888V555.235556H341.333333v55.751111h455.111111v-341.333334z"  horiz-adv-x="1024" />

    
    <glyph glyph-name="fangdajing_huaban1" unicode="&#59010;" d="M823.893333 124.16l-162.56 162.56a267.093333 267.093333 0 1 1-64-57.6l166.4-165.12a42.666667 42.666667 0 0 1 60.16 0 42.666667 42.666667 0 0 1 0 60.16zM264.533333 450.986667a188.586667 188.586667 0 1 0 188.586667-188.586667 189.013333 189.013333 0 0 0-188.586667 188.586667z"  horiz-adv-x="1024" />

    
    <glyph glyph-name="tuichu_huaban1" unicode="&#59014;" d="M738.133333 621.653333l-60.16-60.16L812.8 426.666667H368.213333v-85.333334h443.733334l-134.826667-134.826666 60.16-60.16 208.213333 207.786666v60.586667L738.133333 621.653333zM518.826667 106.666667H163.84v554.666666h355.413333v-128h85.333334v128a85.333333 85.333333 0 0 1-85.333334 85.333334H163.84a85.333333 85.333333 0 0 1-85.333333-85.333334v-554.666666a85.333333 85.333333 0 0 1 85.333333-85.333334h355.413333a85.333333 85.333333 0 0 1 85.333334 85.333334v128h-85.333334z m0 0z"  horiz-adv-x="1024" />

    
    <glyph glyph-name="suoxiao_huaban1" unicode="&#59016;" d="M793.6 29.866667a64.853333 64.853333 0 0 0-45.226667 18.773333L597.333333 202.24a286.293333 286.293333 0 1 0 94.293334 85.333333l149.333333-149.76a64 64 0 0 0-47.36-107.946666z m-341.333333 588.8a167.68 167.68 0 1 1 167.253333-167.68 167.68 167.68 0 0 1-166.4 167.68zM453.12 640A189.013333 189.013333 0 1 1 640 450.986667 189.013333 189.013333 0 0 1 453.12 640zM853.333333 154.453333l-136.533333 137.386667a308.48 308.48 0 1 1-125.44-116.053333l142.08-142.08a85.333333 85.333333 0 0 1 120.746667 0 85.333333 85.333333 0 0 1-0.853334 120.746666z m-30.293333-90.453333a42.666667 42.666667 0 0 0-60.16 0L597.333333 229.12a266.24 266.24 0 1 0 62.72 57.6l162.56-162.56a42.666667 42.666667 0 0 0 1.28-60.16zM346.453333 480.853333h213.333334v-59.733333h-213.333334z"  horiz-adv-x="1024" />

    
    <glyph glyph-name="fangda_huaban1" unicode="&#59017;" d="M793.6 29.866667a64.853333 64.853333 0 0 0-45.226667 18.773333L597.333333 202.24a286.293333 286.293333 0 1 0 94.293334 85.333333l149.333333-149.76a64 64 0 0 0-47.36-107.946666z m-341.333333 588.8a167.68 167.68 0 1 1 167.253333-167.68 167.68 167.68 0 0 1-166.4 167.68zM453.12 640A189.013333 189.013333 0 1 1 640 450.986667 189.013333 189.013333 0 0 1 453.12 640zM853.333333 154.453333l-136.533333 137.386667a308.48 308.48 0 1 1-125.44-116.053333l142.08-142.08a85.333333 85.333333 0 0 1 120.746667 0 85.333333 85.333333 0 0 1-0.853334 120.746666z m-30.293333-90.453333a42.666667 42.666667 0 0 0-60.16 0L597.333333 229.12a266.24 266.24 0 1 0 62.72 57.6l162.56-162.56a42.666667 42.666667 0 0 0 1.28-60.16zM559.786667 480.853333h-76.8v76.8h-59.733334v-76.8h-76.8v-59.733333h76.8v-76.8h59.733334v76.8h76.8v59.733333z"  horiz-adv-x="1024" />

    
    <glyph glyph-name="ant-logo" unicode="&#58895;" d="M512 284.525714m-374.491429 0a374.491429 374.491429 0 1 1 748.982858 0 374.491429 374.491429 0 1 1-748.982858 0ZM512 284.525714m-257.462857 0a257.462857 257.462857 0 1 1 514.925714 0 257.462857 257.462857 0 1 1-514.925714 0ZM836.754286 469.138286V793.6c0 32.182857-26.331429 58.514286-58.514286 58.514286s-58.514286-26.331429-58.514286-58.514286v-197.485714M187.830857 469.138286V793.6c0 32.182857 26.331429 58.514286 58.514286 58.514286s58.514286-26.331429 58.514286-58.514286v-197.046857"  horiz-adv-x="1024" />

    
    <glyph glyph-name="wo" unicode="&#58897;" d="M672.018 750.476c-43.245 45.256-100.85 70.18-162.203 70.18-61.353 0-118.957-24.924-162.202-70.18-42.88-44.876-66.497-104.443-66.497-167.728 0-63.285 23.616-122.852 66.497-167.728 11.97-12.527 25.046-23.489 38.992-32.803-47.224-16.106-100.818-43.473-147.736-90.007-77.782-77.147-117.353-186.8-117.61-325.91-0.031-16.953 13.687-30.723 30.641-30.756h0.059c16.927 0 30.666 13.708 30.698 30.642 0.292 157.36 54.953 268.473 162.466 330.251 81.517 46.841 165.102 47.382 166.381 47.383h0.134c3.044 0 5.983 0.45 8.76 1.276 57.37 2.697 110.872 27.28 151.62 69.924 42.881 44.876 66.496 104.442 66.496 167.728 0 63.285-23.616 122.852-66.496 167.728zM509.815 406.238c-92.25 0-167.3 79.181-167.3 176.51s75.05 176.51 167.3 176.51 167.3-79.183 167.3-176.51-75.05-176.51-167.3-176.51zM761.574 320.905c-14.618 8.591-33.431 3.706-42.022-10.91s-3.706-33.431 10.91-42.023c0.24-0.141 25.18-16.013 50.718-58.038 25.971-42.741 56.931-120.368 56.931-247.465 0-16.954 13.746-30.699 30.7-30.699s30.699 13.745 30.699 30.7c-0.001 274.207-132.303 355.124-137.936 358.435z"  horiz-adv-x="1024" />

    
    <glyph glyph-name="shezhi" unicode="&#58884;" d="M673.6 761.4c29.4-12.7 57.2-28.7 82.9-47.9l-32.7-88.3-7.9-21.5 15.6-16.8c29.9-32.4 52.7-71.7 65.9-113.9l6.8-21.8 22.6-3.8 92.6-15.8c1.8-15.7 2.7-31.7 2.7-47.6 0-16-0.9-31.9-2.7-47.6l-92.6-15.8-22.6-3.8-6.8-21.8c-13.1-42.1-35.9-81.4-65.9-113.9l-15.6-16.8 7.9-21.5 32.7-88.3c-25.6-19.1-53.2-35.1-82.4-47.7l-60 72.4-14.5 17.6-22.3-4.9c-21.8-4.8-43.9-7.3-65.9-7.3-22.1 0-44.3 2.4-65.9 7.3l-22.3 5-14.6-17.6-60.1-72.4c-29.1 12.6-56.5 28.4-81.9 47.3l32.3 88.9 7.8 21.4-15.6 16.5c-29.9 32.3-52.7 71.7-65.9 113.8l-6.8 21.8-22.6 3.8-92.6 15.8c-1.8 15.8-2.7 31.8-2.7 47.6 0 15.9 0.9 31.9 2.7 47.6l92.6 15.8 22.6 3.8 6.8 21.8c13.1 42 35.9 81.4 65.9 113.9l15.9 17.2-8.6 21.8-34 86.3c26.1 19.7 54.2 36 84 48.9l60.1-72.4 14.6-17.6 22.3 5c21.4 4.8 43.5 7.2 65.8 7.2 21.4 0 42.7-2.3 63.4-6.8l21.7-4.7 14.5 16.8 62.8 73M511.3 159.9c123.5 0 224 100.5 224 224s-100.5 224-224 224c-123.6 0-224.1-100.5-224.1-224 0.1-123.5 100.6-224 224.1-224m151.4 646l-80-92.7c-23 5-46.9 7.6-71.3 7.6-25.5 0-50.2-2.8-74-8.2L360 805.8c-51.8-18.6-99.2-46.5-140.2-81.7l44-111.9c-33.5-36.3-59-79.9-74.1-128.1L70.3 463.9c-4.7-25.9-7.1-52.6-7.1-79.9 0-27.3 2.4-53.9 7.1-79.9l119.3-20.3c15.1-48.2 40.6-91.9 74.1-128.1l-41.4-114.2c40.4-34.1 86.9-61.2 137.6-79.4l77.4 93.2c23.8-5.3 48.6-8.2 74-8.2s50.2 2.9 74 8.2l77.3-93.2c51 18.3 97.7 45.6 138.2 80l-42 113.6c33.5 36.2 59 79.8 74.1 128.1l119.3 20.3c4.7 25.9 7.1 52.6 7.1 79.9 0 27.3-2.4 53.9-7.1 79.9l-119.3 20.3c-15.1 48.2-40.6 91.9-74.1 128.1l42 113.6c-40.4 34.4-87.1 61.6-138.1 80zM511.3 197.3c-103.1 0-186.7 83.6-186.7 186.7s83.6 186.7 186.7 186.7c103 0 186.7-83.6 186.7-186.7 0-103.2-83.6-186.7-186.7-186.7z"  horiz-adv-x="1024" />

    
    <glyph glyph-name="wenjian" unicode="&#58887;" d="M957 505.1V667.3H511.1L430 748.4H65.1v-121.6h0.1v-121.6h-0.1v-486.5h892l-0.1 486.4zM105.7 667.3v40.5h307.6l69.2-69.2 11.9-11.9h422.2v-121.6H105.7V667.3z m810.8-608.2H105.7V464.6h810.9v-405.5z"  horiz-adv-x="1024" />

    
    <glyph glyph-name="tupian" unicode="&#58890;" d="M63.3 704.3v-670.2H957V704.3H63.3z m856.4-632.9H100.6V667.1h819.2v-595.7zM696.2 369.2l-148.8-37.3-149 149-223.3-335 670.1-0.1-149 223.4z m-292 53.3l116.9-116.9 14.9-14.9 20.5 5.1 123.3 30.9L775.6 183l-531 0.1 159.6 239.4zM770.8 443.7c41.1 0 74.5 33.4 74.5 74.5s-33.4 74.5-74.5 74.5-74.5-33.4-74.5-74.5 33.4-74.5 74.5-74.5z"  horiz-adv-x="1024" />

    
    <glyph glyph-name="wendang" unicode="&#58891;" d="M632.3 832.1H184.1v-896.4h672.3V608L632.3 832.1z m186.7-859H221.4V794.8h395.4L819 592.6v-619.5zM333.5 159.9H707v-74.7H333.5zM333.5 346.6H707v-74.7H333.5zM333.5 533.3h149.4v-74.7H333.5z"  horiz-adv-x="1024" />

    
    <glyph glyph-name="xinxi" unicode="&#58892;" d="M64.2 663.1v-597.4h896.1V663.1H64.2z m827.1-37.3l-379-275.6-379 275.6h758zM101.5 103V602.7L512.3 304 923 602.7V103H101.5z"  horiz-adv-x="1024" />

    
    <glyph glyph-name="zhuomian" unicode="&#58888;" d="M960.2 212.9V784.3H64.3v-571.4h427.6v-204.1H369.7L329-32h366.5l-40.7 40.8H532.6V212.9h427.6z m-855.1 40.8V743.5h814.4v-489.8H105.1z"  horiz-adv-x="1024" />

    
    <glyph glyph-name="tuichu" unicode="&#58886;" d="M731.38181855 274.33636406000005c-11.26363623-28.14545479-30.95454551-53.45454551-50.64545478-75.92727304a225 225 0 0 0-75.92727304-50.67272725c-28.11818145-11.23636377-59.04545449-19.66363594-92.80909073-19.66363682s-64.66363594 5.61818145-92.80909072 19.66363682a357.3545458 357.3545458 0 0 0-75.92727305 50.67272725 224.75454521 224.75454521 0 0 0-50.61818144 75.92727304c-11.29090869 28.09090898-19.71818174 59.07272695-19.71818174 92.80909073 0 19.63636348 2.83636406 39.35454521 5.6454539 56.23636377 5.59090898 19.63636348 11.23636377 36.5454545 19.66363682 53.4545455 8.4545455 16.82727276 19.69090927 30.89999971 30.95454551 47.80909073A189.27272724 189.27272724 0 0 0 371.38181855 564c8.4545455 5.64545479 16.88181855 8.42727305 25.30909073 5.64545479 8.4545455-2.86363653 16.88181855-5.64545479 22.5-14.07272784 5.64545479-8.42727305 8.4545455-16.90909102 5.64545478-25.30909072-2.83636406-8.4545455-5.64545479-16.85454521-14.10000029-22.5-22.5-16.88181855-42.16363594-36.57272695-53.42727304-61.85454521-11.23636377-25.36363652-19.71818174-50.64545479-19.71818175-78.76363623 0-22.5 5.64545479-45 14.07272696-67.5 8.4545455-22.5 22.5-39.40909102 36.57272783-53.45454551a164.86363652 164.86363652 0 0 1 53.45454551-36.54545449c21.27272695-9.27272724 44.26363652-14.0454545 67.47272666-14.07272784 22.5 0 45 5.61818145 67.52727334 14.07272784 22.5 8.42727305 39.38181855 22.5 53.42727216 36.54545449a164.86363652 164.86363652 0 0 1 36.5454545 53.45454551c9.27272724 21.30000029 14.0454545 44.26363652 14.10000029 67.5 0 28.09090898-5.61818145 53.42727305-16.85454521 75.92727216-11.26363623 22.5-28.14545479 45-50.67272725 59.07272784-8.39999971 5.59090898-11.23636377 14.01818203-14.04545449 22.5-2.83636406 8.42727305 0 16.85454521 5.64545478 25.28181826 5.59090898 8.4545455 14.0454545 11.23636377 22.5 14.07272695 8.42727305 2.80909072 16.82727276 0 25.28181738-5.59090898A261.81818174 261.81818174 0 0 0 692 519c11.23636377-14.07272695 22.5-30.92727305 30.92727305-45 8.4545455-16.85454521 14.07272695-33.76363623 19.71818174-50.61818145 5.61818145-16.88181855 5.61818145-36.5454545 5.61818144-56.23636376 2.80909072-33.76363623-2.83636406-64.71818174-16.88181767-92.86363653v0.0545458zM478.23636377 600.54545449c0 8.42727305 2.83636406 16.85454521 11.26363623 25.33636406 6.57272724 7.00909102 15.70909131 11.04545479 25.30909073 11.23636289 8.4545455 0 16.85454521-2.86363653 22.5-11.23636289 7.03636347-6.59999971 11.09999971-15.73636377 11.26363622-25.36363652v-202.5c0-8.39999971-2.83636406-16.88181855-11.26363622-22.52727334-5.64545479-5.59090898-14.0454545-11.18181797-22.5-11.18181796-8.4545455 0-16.88181855 2.80909072-25.30909073 11.23636376-5.61818145 5.61818145-11.26363623 14.07272695-11.26363623 22.5V600.5727269500001zM512 834C264.5 834 62 631.5 62 384S264.5-66 512-66 962 136.5 962 384 759.5 834 512 834z"  horiz-adv-x="1024" />

    
    <glyph glyph-name="xiaoxi" unicode="&#58885;" d="M319.798025-68.852902c-6.696516 0-13.352099 2.440585-18.570961 7.131421-8.770757 7.888667-11.589966 20.455891-7.048533 31.340799l31.720446 75.93853c5.287423 11.30651 9.475815 24.943089 9.841136 31.232328-6.859221 10.734482-5.585205 25.173332 3.795443 34.552957 10.843976 10.830673 28.426423 10.830673 39.270399-0.014326 23.437805-23.450085 8.67559-65.431222-2.209318-88.354304l-0.704035-1.694595 126.09486 69.039399c4.093225 2.236947 8.67559 3.415796 13.337773 3.415796 215.60243 0 390.999159 154.586774 390.999159 344.591199 0 176.182628-182.716438 330.724377-390.999159 330.724377-206.655663 0-385.726062-151.829987-391.025765-331.544045-3.009544-102.08912 50.196239-199.649086 145.95314-267.670296 12.498662-8.863878 15.439644-26.188452 6.561439-38.70144-8.892531-12.483312-26.202779-15.439644-38.714743-6.545066C126.941646 203.534835 65.236282 318.189132 68.801481 439.145971 74.956667 648.065188 279.442922 824.574251 515.32421 824.574251c242.035452 0 446.523753-176.881546 446.523753-386.247948 0-218.470757-196.420555-396.61711-439.324794-400.061558L333.136821-65.435059C328.948429-67.727265 324.366064-68.852902 319.798025-68.852902zM586.004993 489.274672 336.146365 489.274672c-7.67275 0-13.880125 6.215562-13.880125 13.881149s6.208399 13.881149 13.880125 13.881149l249.858628 0c7.671727 0 13.880125-6.215562 13.880125-13.881149S593.676719 489.274672 586.004993 489.274672zM697.051111 489.274672l-41.642422 0c-7.671727 0-13.880125 6.215562-13.880125 13.881149s6.208399 13.881149 13.880125 13.881149l41.642422 0c7.67275 0 13.881149-6.215562 13.881149-13.881149S704.723861 489.274672 697.051111 489.274672zM502.718101 350.465233 350.027513 350.465233c-7.67275 0-13.881149 6.215562-13.881149 13.880125 0 7.66661 6.208399 13.880125 13.881149 13.880125l152.690588 0c7.67275 0 13.880125-6.213515 13.880125-13.880125C516.598226 356.680794 510.390851 350.465233 502.718101 350.465233zM586.004993 350.465233l-27.762297 0c-7.67275 0-13.881149 6.215562-13.881149 13.880125 0 7.66661 6.208399 13.880125 13.881149 13.880125l27.762297 0c7.671727 0 13.880125-6.213515 13.880125-13.880125C599.885118 356.680794 593.676719 350.465233 586.004993 350.465233z"  horiz-adv-x="1024" />

    
    <glyph glyph-name="icon--" unicode="&#59203;" d="M512 778.24c-225.28 0-409.6-161.28-409.6-358.4C102.4 307.2 161.28 204.8 256 140.8v-181.76l179.2 110.08c25.6-5.12 51.2-7.68 76.8-7.68 225.28 0 409.6 161.28 409.6 358.4 0 199.68-184.32 358.4-409.6 358.4z m0-665.6c-30.72 0-58.88 2.56-87.04 10.24L304.64 51.2l2.56 117.76c-92.16 56.32-153.6 148.48-153.6 250.88 0 168.96 161.28 307.2 358.4 307.2s358.4-138.24 358.4-307.2-161.28-307.2-358.4-307.2z"  horiz-adv-x="1024" />

    
    <glyph glyph-name="zhongzhi" unicode="&#58894;" d="M755.28502227-25.131334870000046a442.56740888 442.56740888 0 0 1 142.82857265 105.3479839 447.96715488 447.96715488 0 0 1 91.21335469 153.20455488 452.67869707 452.67869707 0 0 1 25.09293691 170.56844385 452.09637158 452.09637158 0 0 1-40.02164649 167.70975468 447.06719707 447.06719707 0 0 1-104.28920946 144.31085596A440.92630898 440.92630898 0 0 1 549.72410732 833.53413925 442.88504033 442.88504033 0 0 1 240.93275645 687.63512344a448.07303145 448.07303145 0 0 1-83.11373614-131.97614239L62 578.95200234l39.70401416-135.36421787 39.75695245-135.36421874 96.13665263 102.48929472L333.73427099 513.1492169l-90.57809003 21.91661542a361.57121982 361.57121982 0 0 0 61.51475214 93.70147237 356.70086104 356.70086104 0 0 0 507.04672764 22.81657412c146.05783242-134.99364727 156.1161832-364.74754131 22.5518792-512.28765703a356.91261592 356.91261592 0 0 0-507.1526042-22.76363496l-58.28549238-64.42638047a441.29688047 441.29688047 0 0 1 320.54373896-117.6297583 438.91463935 438.91463935 0 0 1 165.90983995 40.39221708z"  horiz-adv-x="1084" />

    
    <glyph glyph-name="ie" unicode="&#59177;" d="M734.207227 309.83756666l236.062911 0c1.823992 16.383924 2.559988 33.087847 2.559988 50.207768 0 80.22363-21.535901 155.455283-59.135727 220.254984 38.879821 103.295524 37.503827 190.975119-14.559933 243.390877-49.503772 49.279773-182.303159 41.27981-332.414467-25.183884-11.103949 0.831996-22.303897 1.279994-33.631845 1.279994-206.04705 0-378.910252-141.791346-426.718032-332.862465 64.639702 82.751618 132.639388 142.751342 223.486969 186.43114-8.255962-7.743964-56.44774-55.647743-64.575702-63.775706-239.550895-239.486895-315.102547-552.317452-233.790922-633.597078 61.791715-61.759715 173.759199-51.327763 302.366605 11.647946 59.807724-30.463859 127.487412-47.61578 199.231081-47.61578 193.119109 0 356.798354 124.319427 416.094081 297.438628l-237.854903 0c-32.735849-60.383721-96.735554-101.471532-170.207215-101.471532s-137.471366 41.08781-170.207215 101.471532c-14.559933 27.263874-22.911894 58.55973-22.911894 91.647577l0 0.735997 386.270218 0zM348.289007 425.86903166c5.471975 97.119552 86.207602 174.591195 184.767148 174.591195s179.327173-77.471643 184.767148-174.591195l-369.534296 0zM896.958476 774.8594226600001c33.535845-33.887844 32.671849-96.223556 3.999982-174.015197-49.119773 74.911654-120.511444 133.951382-204.799055 167.647227 90.111584 38.623822 163.391246 43.743798 200.767074 6.367971zM93.474182-28.592872339999985c-42.783803 42.783803-29.887862 132.607388 25.215884 240.830889 34.303842-96.255556 101.151533-177.087183 187.327136-229.150943-95.42356-43.3278-173.5352-50.687766-212.575019-11.679946z"  horiz-adv-x="1024" />

    
    <glyph glyph-name="zuixiaohua_huaban1" unicode="&#58973;" d="M207.075556 440.8888893h568.888888v-113.777778h-568.888888z"  horiz-adv-x="1024" />

    
    <glyph glyph-name="guanbi_huaban1" unicode="&#58986;" d="M794.737778 611.555556l-56.32 56.888888-223.573334-223.573333L291.84 668.444444l-56.888889-56.888888 223.573333-223.004445-223.573333-223.573333 56.888889-56.32 223.004444 223.573333 223.573334-223.573333 56.32 56.32-223.573334 223.573333L794.737778 611.555556z"  horiz-adv-x="1024" />

    
    <glyph glyph-name="zuidahua_huaban1" unicode="&#58995;" d="M199.111111 640v-512h625.777778v512z m56.888889-455.111111v341.333333h512v-341.333333z"  horiz-adv-x="1024" />

    


  </font>
</defs>
</svg>
